<?xml version="1.0" standalone="no"?><svg xmlns="http://www.w3.org/2000/svg" viewBox="0 0 1440 320"><path fill="#0099ff" fill-opacity="1" d="M0,128L24,149.3C48,171,96,213,144,197.3C192,181,240,107,288,96C336,85,384,139,432,176C480,213,528,235,576,240C624,245,672,235,720,202.7C768,171,816,117,864,101.3C912,85,960,107,1008,128C1056,149,1104,171,1152,176C1200,181,1248,171,1296,149.3C1344,128,1392,96,1416,80L1440,64L1440,0L1416,0C1392,0,1344,0,1296,0C1248,0,1200,0,1152,0C1104,0,1056,0,1008,0C960,0,912,0,864,0C816,0,768,0,720,0C672,0,624,0,576,0C528,0,480,0,432,0C384,0,336,0,288,0C240,0,192,0,144,0C96,0,48,0,24,0L0,0Z"></path></svg>